<?xml version="1.0" encoding="utf-8"?>
<!-- Generator: Adobe Illustrator 27.8.1, SVG Export Plug-In . SVG Version: 6.00 Build 0)  -->
<svg version="1.1" id="Layer_1" xmlns="http://www.w3.org/2000/svg" xmlns:xlink="http://www.w3.org/1999/xlink" x="0px" y="0px"
	 viewBox="0 0 156.9 156.9" style="enable-background:new 0 0 156.9 156.9;" xml:space="preserve">
<style type="text/css">
	.st0{fill:#007EC6;}
	.st1{display:none;}
	.st2{display:inline;}
	.st3{fill:#FFFFFF;}
	.st4{opacity:0.75;}
	.st5{clip-path:url(#SVGID_00000075125464095794499790000003230709579747823239_);}
	.st6{fill-rule:evenodd;clip-rule:evenodd;fill:#12100E;}
	.st7{fill:#67B731;stroke:#67B731;stroke-width:0.5853;stroke-miterlimit:10;}
	.st8{clip-path:url(#SVGID_00000018941429933584530090000016034436829334579376_);}
	.st9{clip-path:url(#SVGID_00000077289667587173412400000007515666405466714036_);}
	.st10{fill:none;stroke:#67B731;stroke-width:0.5853;stroke-miterlimit:10;}
	.st11{clip-path:url(#SVGID_00000071527742464298046480000006189993981354456970_);}
	.st12{clip-path:url(#SVGID_00000112629991418276865710000015333893794500170898_);}
	.st13{fill-rule:evenodd;clip-rule:evenodd;fill:#95C323;}
	.st14{clip-path:url(#SVGID_00000000902964212912381550000010156533524786680760_);}
	.st15{fill:none;stroke:#67B731;stroke-width:0.9071;stroke-miterlimit:10;}
	.st16{fill-rule:evenodd;clip-rule:evenodd;fill:#FFFFFF;}
	.st17{display:inline;fill:url(#SVGID_1_);}
	.st18{display:inline;fill:url(#SVGID_00000134969916678090014560000002884285200010852236_);}
	.st19{display:inline;fill:url(#SVGID_00000061430515344949768250000014276446845337734048_);}
	.st20{display:inline;fill:url(#SVGID_00000147182782655684638950000011136805044477321910_);}
	.st21{display:inline;fill:url(#SVGID_00000083808068595974396780000003033104341561239474_);}
	.st22{clip-path:url(#SVGID_00000024696577247086506990000005833585278513736117_);}
	.st23{clip-path:url(#SVGID_00000024696577247086506990000005833585278513736117_);fill:#DB0E13;}
	.st24{fill:#12100E;}
</style>
<g>
	<circle class="st3" cx="78.5" cy="78.5" r="76.5"/>
	<path class="st24" d="M78.5,156.9c-21,0-40.7-8.2-55.5-23S0,99.4,0,78.5c0-21,8.2-40.7,23-55.5C37.8,8.2,57.5,0,78.5,0
		c21,0,40.7,8.2,55.5,23c14.8,14.8,23,34.5,23,55.5s-8.2,40.7-23,55.5C119.1,148.7,99.4,156.9,78.5,156.9z M78.5,3.8
		C37.3,3.8,3.8,37.3,3.8,78.5s33.5,74.6,74.6,74.6c41.1,0,74.6-33.5,74.6-74.6S119.6,3.8,78.5,3.8z"/>
	<g>
		<path class="st24" d="M31.7,126.1c0-0.8,0.2-1.5,0.7-2c0.5-0.6,1.2-0.9,2-0.9c0.8,0,1.5,0.2,2,0.7c0.6,0.5,0.9,1.2,0.9,2
			c0,0.8-0.2,1.5-0.7,2c-0.5,0.6-1.2,0.9-2,0.9c-0.8,0-1.5-0.2-2-0.7C32,127.5,31.7,126.9,31.7,126.1z"/>
		<path class="st24" d="M40.4,137.6l5.9-9.7l2.1,1.3l-5.9,9.7L40.4,137.6z"/>
		<path class="st24" d="M56.8,134.3l-2.3,1c-0.1-0.3-0.2-0.6-0.5-0.8c-0.3-0.3-0.5-0.5-0.8-0.6c-0.4-0.2-0.8-0.2-1.2-0.2
			c-0.4,0-0.7,0.2-0.8,0.6c-0.1,0.3-0.1,0.5,0,0.8c0.1,0.3,0.3,0.5,0.5,0.7c0.2,0.2,0.5,0.5,0.8,0.7c0.3,0.2,0.6,0.5,0.9,0.8
			c0.3,0.3,0.5,0.6,0.7,0.9c0.2,0.3,0.3,0.7,0.3,1.2c0,0.4-0.1,0.9-0.3,1.4c-0.5,1.1-1.3,1.8-2.3,2c-1,0.2-2.1,0.1-3.3-0.4
			c-1.4-0.6-2.3-1.6-2.9-2.9l2.4-1c0.1,0.4,0.3,0.8,0.6,1.1c0.3,0.3,0.6,0.6,1,0.8c0.4,0.2,0.8,0.3,1.2,0.2c0.4,0,0.7-0.2,0.8-0.6
			c0.1-0.3,0.1-0.6,0-0.9c-0.1-0.3-0.4-0.6-0.7-0.9c-0.3-0.3-0.6-0.6-1-0.9c-0.3-0.3-0.7-0.7-0.9-1c-0.3-0.3-0.4-0.8-0.5-1.3
			c-0.1-0.5,0-1,0.3-1.5c0.5-1.1,1.2-1.7,2.3-1.9c1-0.2,2.1-0.1,3.2,0.4C55.4,132.4,56.3,133.2,56.8,134.3z"/>
		<path class="st24" d="M57.6,144.3c-0.9-1.3-1.1-2.9-0.6-4.6c0.4-1.7,1.3-3,2.7-3.8c1.4-0.8,2.9-1,4.7-0.5c1.7,0.4,3.1,1.3,3.9,2.6
			c0.9,1.3,1.1,2.9,0.6,4.6c-0.4,1.7-1.3,3-2.7,3.8c-1.4,0.8-2.9,1-4.7,0.5C59.8,146.5,58.5,145.6,57.6,144.3z M61.1,137.9
			c-0.8,0.5-1.3,1.3-1.6,2.3c-0.3,1-0.1,2,0.3,2.8c0.5,0.8,1.2,1.4,2.2,1.6c1,0.3,1.9,0.1,2.7-0.4c0.8-0.5,1.3-1.3,1.6-2.3
			c0.3-1,0.1-2-0.3-2.8c-0.5-0.8-1.2-1.4-2.2-1.6C62.8,137.3,61.9,137.4,61.1,137.9z"/>
		<path class="st24" d="M78.3,148.7l2.5-4.2c-0.3,0.1-0.6,0.1-0.8,0.1c-1,0-1.9-0.3-2.6-1c-0.7-0.7-1-1.6-1.1-2.6
			c0-1.2,0.3-2.1,1.1-2.9c0.8-0.7,1.8-1.1,3-1.2c1.2,0,2.2,0.3,3.1,1c0.8,0.7,1.3,1.6,1.3,2.8c0,0.5,0,1-0.2,1.5s-0.3,0.9-0.4,1.1
			c-0.1,0.3-0.4,0.7-0.7,1.2l-2.4,4L78.3,148.7z M79.2,139.8c-0.3,0.3-0.5,0.8-0.5,1.3c0,0.5,0.2,0.9,0.6,1.3
			c0.4,0.3,0.8,0.5,1.3,0.5c0.5,0,1-0.2,1.3-0.5c0.3-0.3,0.5-0.8,0.5-1.3c0-0.5-0.2-0.9-0.6-1.3c-0.4-0.3-0.8-0.5-1.3-0.5
			C80,139.3,79.6,139.4,79.2,139.8z"/>
		<path class="st24" d="M87.2,144.1c-0.2-0.5-0.3-1-0.4-1.6c-0.1-0.6-0.2-1.1-0.2-1.6c0-0.5,0-1.1,0.1-1.6c0.1-0.6,0.3-1,0.5-1.5
			c0.2-0.4,0.6-0.8,1-1.1c0.4-0.3,1-0.6,1.6-0.7c0.6-0.1,1.2-0.1,1.8,0c0.5,0.1,1,0.4,1.4,0.7c0.4,0.3,0.7,0.7,1,1.2
			c0.3,0.5,0.5,1,0.7,1.5c0.2,0.5,0.3,1,0.4,1.6c0.1,0.6,0.2,1.1,0.2,1.6c0,0.5,0,1.1-0.1,1.6c-0.1,0.6-0.3,1-0.5,1.5
			c-0.2,0.4-0.6,0.8-1,1.1c-0.4,0.3-1,0.6-1.6,0.7c-0.6,0.1-1.2,0.1-1.8,0c-0.5-0.1-1-0.4-1.4-0.7c-0.4-0.3-0.7-0.7-1-1.2
			C87.6,145.1,87.4,144.6,87.2,144.1z M90.3,138.1c-1.2,0.2-1.5,1.5-1.1,3.9c0.5,2.4,1.3,3.5,2.5,3.2c1.2-0.2,1.5-1.5,1.1-3.9
			C92.3,139,91.4,137.9,90.3,138.1z"/>
		<path class="st24" d="M97.7,141.9c-0.3-0.5-0.5-1-0.7-1.5c-0.2-0.5-0.4-1.1-0.5-1.6c-0.1-0.5-0.2-1.1-0.2-1.6
			c0-0.6,0.1-1.1,0.2-1.5c0.2-0.5,0.4-0.9,0.8-1.3c0.4-0.4,0.9-0.7,1.5-0.9c0.6-0.2,1.2-0.3,1.8-0.3c0.6,0.1,1,0.2,1.5,0.5
			c0.4,0.3,0.8,0.6,1.2,1c0.4,0.4,0.7,0.9,0.9,1.3c0.3,0.5,0.5,1,0.7,1.5c0.2,0.5,0.4,1.1,0.5,1.6c0.1,0.5,0.2,1.1,0.2,1.6
			c0,0.6-0.1,1.1-0.2,1.5c-0.2,0.5-0.4,0.9-0.8,1.3c-0.4,0.4-0.9,0.7-1.5,0.9c-0.6,0.2-1.2,0.3-1.8,0.3c-0.6-0.1-1-0.2-1.5-0.5
			c-0.4-0.3-0.8-0.6-1.2-1C98.3,142.8,97.9,142.4,97.7,141.9z M99.7,135.5c-1.1,0.4-1.3,1.8-0.4,4.1c0.8,2.3,1.8,3.2,3,2.8
			c1.1-0.4,1.3-1.8,0.4-4.1C101.9,136,100.9,135.1,99.7,135.5z"/>
		<path class="st24" d="M113.1,139.6l-4.3-7.6l-1,2.9l-2-0.7l1.7-4.6l2-1.1l5.6,9.9L113.1,139.6z"/>
		<path class="st24" d="M122.4,128.6c-0.8,0-1.4-0.3-2-0.9c-0.5-0.6-0.8-1.3-0.8-2c0-0.8,0.3-1.4,0.9-2c0.6-0.5,1.3-0.8,2-0.8
			c0.8,0,1.4,0.3,2,0.9c0.5,0.6,0.8,1.3,0.8,2c0,0.8-0.3,1.4-0.9,2C123.9,128.4,123.2,128.7,122.4,128.6z"/>
	</g>
	<g>
		<path class="st24" d="M15.6,101.4l2,1c-0.3,0.7-0.3,1.4,0,2.2c0.4,0.8,0.9,1.3,1.8,1.6c0.8,0.3,1.7,0.2,2.6-0.2
			c0.9-0.4,1.5-1,1.9-1.8c0.4-0.8,0.4-1.6,0-2.3c-0.4-0.9-1-1.4-1.9-1.5l0.5-2.3c0.7,0.1,1.4,0.5,1.9,1c0.6,0.5,1,1.1,1.3,1.8
			c0.7,1.5,0.8,3,0.3,4.3c-0.5,1.4-1.5,2.4-3,3.1c-1.5,0.7-3,0.7-4.3,0.2c-1.4-0.6-2.4-1.6-3-3.1c-0.3-0.6-0.4-1.3-0.5-1.9
			C15.1,102.6,15.2,102,15.6,101.4z"/>
		<path class="st24" d="M22.1,95.7c-0.7,1.3-1.9,2.1-3.5,2.5c-1.6,0.4-3,0.2-4.3-0.6c-1.2-0.8-2-2-2.4-3.6c-0.4-1.6-0.2-3.1,0.6-4.3
			c0.7-1.3,1.9-2.1,3.5-2.5s3-0.2,4.3,0.6c1.2,0.8,2,2,2.4,3.6C23,93,22.8,94.5,22.1,95.7z M15.4,95.5c0.8,0.4,1.6,0.5,2.6,0.3
			c1-0.2,1.7-0.7,2.2-1.4c0.5-0.7,0.6-1.6,0.4-2.5c-0.2-1-0.7-1.6-1.5-2.1c-0.8-0.4-1.6-0.5-2.6-0.3c-1,0.2-1.7,0.7-2.2,1.4
			c-0.5,0.7-0.6,1.6-0.4,2.5C14.2,94.4,14.7,95.1,15.4,95.5z"/>
		<path class="st24" d="M20.9,84.7l-10.5,0l0-3.5l6.8-2.4v0l-6.9-2.4l0-3.5l10.5,0l0,2.3l-8.1,0v0l8.1,2.7l0,1.8l-8,2.7v0l8.1,0
			L20.9,84.7z"/>
		<path class="st24" d="M21.3,70.9l-10.3-2l0.8-3.8c0.5-2.6,1.8-3.7,3.9-3.3c2.1,0.4,2.9,1.9,2.4,4.4l-0.3,1.7l4,0.8L21.3,70.9z
			 M13.3,67l2.4,0.5l0.3-1.5c0.2-1.1-0.1-1.7-0.9-1.8c-0.8-0.2-1.3,0.4-1.6,1.7L13.3,67z"/>
		<path class="st24" d="M22.4,64.3l-8.4-7.8l0.6-1.8l11.4-0.8l-0.9,2.5l-2.4,0.1l-1.4,3.8l1.8,1.6L22.4,64.3z M20.7,56.5l-3.5,0.1
			l2.6,2.3L20.7,56.5z"/>
		<path class="st24" d="M21.5,42.5l0.7,2.2c-0.3,0-0.6,0.2-0.8,0.4c-0.3,0.2-0.5,0.5-0.6,0.7c-0.2,0.3-0.3,0.7-0.3,1.1
			c0,0.4,0.2,0.6,0.5,0.8c0.2,0.1,0.5,0.2,0.7,0.1c0.2-0.1,0.5-0.2,0.7-0.4c0.2-0.2,0.5-0.4,0.7-0.7c0.3-0.3,0.5-0.5,0.8-0.7
			c0.3-0.2,0.6-0.4,0.9-0.6c0.3-0.1,0.7-0.2,1.1-0.2c0.4,0,0.8,0.2,1.3,0.4c1,0.5,1.5,1.3,1.7,2.3c0.1,1-0.1,1.9-0.6,3
			c-0.7,1.2-1.6,2-2.9,2.4L24.6,51c0.4-0.1,0.7-0.2,1.1-0.4c0.3-0.2,0.6-0.5,0.8-0.8c0.2-0.4,0.3-0.7,0.3-1.1c0-0.4-0.2-0.7-0.5-0.8
			c-0.3-0.1-0.5-0.2-0.8-0.1c-0.3,0.1-0.6,0.3-0.8,0.6c-0.3,0.3-0.6,0.6-0.9,0.8c-0.3,0.3-0.7,0.6-1,0.8c-0.3,0.2-0.7,0.4-1.2,0.4
			c-0.5,0-0.9-0.1-1.4-0.4c-0.9-0.5-1.5-1.3-1.6-2.3c-0.1-1,0.1-1.9,0.6-2.9C19.6,43.7,20.5,42.9,21.5,42.5z"/>
		<path class="st24" d="M27.3,34.7l0.4,2.3c-0.3,0-0.6,0.1-0.9,0.3c-0.3,0.2-0.5,0.4-0.7,0.6c-0.2,0.3-0.4,0.6-0.4,1
			c-0.1,0.4,0.1,0.7,0.3,0.9c0.2,0.2,0.4,0.2,0.7,0.2c0.2,0,0.5-0.1,0.7-0.3c0.3-0.2,0.5-0.3,0.8-0.6c0.3-0.2,0.6-0.4,0.9-0.6
			c0.3-0.2,0.6-0.3,1-0.4c0.3-0.1,0.7-0.1,1.1,0c0.4,0.1,0.8,0.3,1.2,0.6c0.9,0.7,1.3,1.5,1.3,2.5c0,1-0.3,1.9-1.1,2.8
			c-0.9,1.1-1.9,1.8-3.2,2l-0.4-2.4c0.4,0,0.8-0.1,1.1-0.3c0.4-0.2,0.7-0.4,0.9-0.7c0.3-0.3,0.4-0.7,0.4-1.1c0-0.4-0.1-0.7-0.3-0.9
			c-0.2-0.2-0.5-0.2-0.8-0.2c-0.3,0.1-0.6,0.2-0.9,0.4c-0.3,0.2-0.6,0.5-1,0.7c-0.4,0.2-0.8,0.4-1.1,0.6c-0.4,0.2-0.8,0.2-1.2,0.2
			c-0.5,0-0.9-0.2-1.3-0.6c-0.8-0.6-1.3-1.5-1.3-2.5c0-1,0.3-1.9,1-2.8C25.3,35.5,26.2,34.9,27.3,34.7z"/>
		<path class="st24" d="M38.3,36.9l-3-11l1.5-1.2L46.9,30l-2,1.6l-2.1-1.2L39.6,33l0.7,2.3L38.3,36.9z M40.9,29.4l-3-1.7l1,3.3
			L40.9,29.4z"/>
		<path class="st24" d="M49,17.9l-0.5,2.3c-0.3-0.1-0.6-0.1-0.9-0.1c-0.3,0-0.6,0.1-0.9,0.3c-0.3,0.2-0.6,0.4-0.8,0.8
			c-0.2,0.3-0.2,0.6,0,0.9c0.1,0.2,0.3,0.4,0.5,0.4c0.2,0.1,0.5,0.1,0.8,0c0.3,0,0.6-0.1,1-0.2c0.3-0.1,0.7-0.2,1.1-0.2s0.7,0,1.1,0
			c0.3,0,0.7,0.2,1,0.4c0.3,0.2,0.6,0.6,0.9,1c0.5,1,0.6,1.9,0.2,2.8c-0.4,0.9-1.1,1.6-2.1,2.2c-1.2,0.7-2.5,0.9-3.7,0.6l0.6-2.4
			c0.4,0.2,0.7,0.2,1.1,0.2c0.4,0,0.8-0.1,1.1-0.3c0.4-0.2,0.6-0.5,0.8-0.8c0.2-0.3,0.2-0.6,0-0.9c-0.1-0.3-0.4-0.4-0.7-0.5
			c-0.3-0.1-0.7-0.1-1,0c-0.4,0.1-0.8,0.2-1.2,0.2c-0.4,0.1-0.9,0.1-1.3,0.1c-0.4,0-0.8-0.1-1.2-0.3c-0.4-0.2-0.7-0.6-1-1
			c-0.5-0.9-0.6-1.9-0.2-2.8c0.4-0.9,1.1-1.6,2-2.2C46.8,17.9,47.9,17.7,49,17.9z"/>
		<path class="st24" d="M58.1,14.3l-0.9,2.2c-0.2-0.1-0.5-0.2-0.9-0.2c-0.3,0-0.7,0.1-0.9,0.2c-0.4,0.1-0.7,0.3-0.9,0.6
			c-0.2,0.3-0.3,0.6-0.2,0.9c0.1,0.2,0.2,0.4,0.5,0.5c0.2,0.1,0.5,0.1,0.8,0.1c0.3,0,0.6,0,1-0.1c0.4,0,0.7,0,1.1,0
			c0.4,0,0.7,0.1,1.1,0.1c0.3,0.1,0.7,0.3,0.9,0.6c0.3,0.3,0.5,0.7,0.7,1.1c0.4,1,0.3,2-0.2,2.8c-0.5,0.8-1.3,1.4-2.4,1.9
			c-1.3,0.5-2.6,0.5-3.8,0l0.9-2.3c0.3,0.2,0.7,0.3,1.1,0.4c0.4,0,0.8,0,1.1-0.1c0.4-0.1,0.7-0.4,0.9-0.7c0.2-0.3,0.3-0.6,0.2-0.9
			c-0.1-0.3-0.3-0.5-0.6-0.6c-0.3-0.1-0.6-0.1-1-0.1c-0.4,0-0.8,0.1-1.2,0.1c-0.5,0-0.9,0-1.3-0.1c-0.4,0-0.8-0.2-1.2-0.5
			c-0.4-0.3-0.6-0.7-0.8-1.2c-0.4-1-0.3-1.9,0.2-2.8c0.5-0.8,1.3-1.5,2.3-1.8C55.9,13.9,57,13.9,58.1,14.3z"/>
		<path class="st24" d="M69.6,10.8l1.3,6.3c0.3,1.3,0.1,2.4-0.5,3.3c-0.6,0.9-1.6,1.5-3,1.8c-1.4,0.3-2.5,0.1-3.4-0.5
			c-0.9-0.6-1.5-1.6-1.7-2.8l-1.3-6.3l2.3-0.5l1.2,6.2c0.1,0.6,0.4,1.1,0.9,1.5c0.5,0.3,1,0.5,1.6,0.3c0.6-0.1,1-0.4,1.3-0.9
			c0.3-0.5,0.4-1.1,0.3-1.7l-1.2-6.2L69.6,10.8z"/>
		<path class="st24" d="M73.6,21l-0.2-10.5l4.1-0.1c2.6-0.1,4,1,4,3.1c0,0.8-0.2,1.4-0.6,1.9c-0.4,0.5-0.9,0.9-1.7,1l2.8,4.4
			l-2.8,0.1L77,16.7l-1.1,0l0.1,4.2L73.6,21z M75.7,12.4l0.1,2.4l1.4,0c0.3,0,0.5,0,0.7,0c0.2,0,0.4-0.1,0.6-0.1
			c0.2-0.1,0.4-0.2,0.5-0.4c0.1-0.2,0.2-0.4,0.2-0.7c0-0.8-0.6-1.2-1.8-1.2L75.7,12.4z"/>
		<path class="st24" d="M81.9,20.7L88,11l1.9,0.3l2.9,11.1L90.2,22l-0.6-2.3l-4-0.6l-1.2,2.1L81.9,20.7z M89.2,17.6l-0.8-3.4l-1.8,3
			L89.2,17.6z"/>
		<path class="st24" d="M93.6,22.7l3.6-9.9l3,1.1l1.7,8.4l0,0l2.5-6.9l2.2,0.8l-3.6,9.9l-2.8-1l-1.7-8.6l0,0l-2.6,7L93.6,22.7z"/>
		<path class="st24" d="M116.8,23.5l-2.3,0.3c-0.1-0.7-0.5-1.3-1.3-1.8c-0.8-0.5-1.5-0.6-2.4-0.3c-0.8,0.3-1.5,0.8-2,1.6
			c-0.5,0.8-0.7,1.7-0.5,2.5c0.2,0.8,0.6,1.5,1.3,1.9c0.8,0.5,1.6,0.5,2.4,0.1l0.9,2.2c-0.7,0.3-1.4,0.4-2.1,0.3
			c-0.7-0.1-1.4-0.3-2.1-0.7c-1.4-0.9-2.3-2-2.7-3.4c-0.4-1.4-0.2-2.8,0.7-4.3c0.9-1.4,2-2.3,3.4-2.6c1.4-0.3,2.9-0.1,4.3,0.8
			c0.6,0.3,1.1,0.8,1.5,1.3C116.5,22.2,116.7,22.8,116.8,23.5z"/>
		<path class="st24" d="M113.2,32.3l6.8-8l5.4,4.6l-1.4,1.6l-3.7-3.1l-1.3,1.5l3.5,2.9l-1.4,1.6l-3.5-2.9l-1.4,1.6l3.9,3.3l-1.4,1.6
			L113.2,32.3z"/>
		<path class="st24" d="M134.7,41.4l-2.3-0.2c0.1-0.3,0.1-0.6,0-0.9c-0.1-0.3-0.2-0.6-0.4-0.9c-0.2-0.3-0.5-0.5-0.9-0.7
			c-0.3-0.2-0.7-0.1-0.9,0.1c-0.2,0.2-0.3,0.4-0.4,0.6c0,0.2,0,0.5,0.1,0.8c0.1,0.3,0.2,0.6,0.3,0.9c0.1,0.3,0.2,0.7,0.3,1
			c0.1,0.4,0.1,0.7,0.1,1.1c0,0.3-0.1,0.7-0.3,1.1c-0.2,0.4-0.5,0.7-0.9,1c-0.9,0.7-1.8,0.9-2.8,0.6c-0.9-0.3-1.7-0.9-2.4-1.8
			c-0.8-1.1-1.2-2.3-1-3.6l2.4,0.2c-0.1,0.4-0.1,0.8-0.1,1.2c0.1,0.4,0.2,0.7,0.5,1.1c0.2,0.3,0.5,0.6,0.9,0.7
			c0.3,0.1,0.7,0.1,0.9-0.1c0.2-0.2,0.4-0.4,0.4-0.7c0-0.3,0-0.7-0.2-1c-0.1-0.4-0.3-0.7-0.4-1.2c-0.1-0.4-0.2-0.9-0.3-1.3
			c-0.1-0.4,0-0.8,0.2-1.2c0.2-0.4,0.5-0.8,0.9-1.1c0.9-0.6,1.8-0.8,2.7-0.5c1,0.3,1.8,0.9,2.4,1.7
			C134.5,39.2,134.8,40.3,134.7,41.4z"/>
		<path class="st24" d="M127.9,48.5l9.3-4.9l3.3,6.3l-1.9,1l-2.2-4.3l-1.7,0.9l2.1,4l-1.9,1l-2.1-4l-1.9,1l2.4,4.5l-1.9,1
			L127.9,48.5z"/>
		<path class="st24" d="M131.9,56.6l9.9-3.4l1.3,3.8c0.9,2.5,0.3,4.1-1.7,4.8c-0.7,0.2-1.4,0.3-2,0.1c-0.6-0.2-1.1-0.6-1.5-1.3
			l-3.3,4l-0.9-2.6l3.3-3.4l-0.4-1.1l-4,1.4L131.9,56.6z M140.7,56l-2.3,0.8l0.4,1.3c0.1,0.3,0.2,0.5,0.2,0.6
			c0.1,0.2,0.2,0.3,0.3,0.5c0.1,0.2,0.3,0.3,0.5,0.4c0.2,0.1,0.4,0,0.7-0.1c0.8-0.3,1-1,0.6-2.1L140.7,56z"/>
		<path class="st24" d="M135.3,68.7L145,63l0.4,2.6l-6.4,3.6l0,0l7.2,1.6l0.4,2.4l-11-2.7L135.3,68.7z"/>
		<path class="st24" d="M136.1,75.9l10.5-0.3l0.1,2.3l-10.5,0.3L136.1,75.9z"/>
		<path class="st24" d="M144.6,89.7l-1.3-1.9c0.6-0.4,1-1.1,1.1-1.9c0.1-0.9-0.2-1.6-0.7-2.3c-0.6-0.6-1.4-1-2.3-1.1
			c-1-0.1-1.8,0.1-2.5,0.6c-0.7,0.5-1.1,1.2-1.2,2c-0.1,0.9,0.2,1.7,0.9,2.3l-1.6,1.8c-0.6-0.5-1-1.1-1.2-1.8
			c-0.2-0.7-0.3-1.4-0.2-2.2c0.2-1.7,0.8-3,1.9-3.9c1.1-1,2.5-1.3,4.1-1.2c1.7,0.2,2.9,0.8,3.8,2c0.9,1.2,1.3,2.6,1.1,4.2
			c-0.1,0.7-0.3,1.3-0.6,1.9C145.6,88.9,145.1,89.4,144.6,89.7z"/>
		<path class="st24" d="M135,90.2l10.1,2.8l-1.9,6.9l-2.1-0.6l1.3-4.7l-1.9-0.5l-1.2,4.4l-2.1-0.6l1.2-4.4l-2.1-0.6l-1.3,4.9
			l-2.1-0.6L135,90.2z"/>
		<path class="st24" d="M138.6,109l-0.9-2.2c0.3-0.1,0.5-0.2,0.8-0.5c0.2-0.2,0.4-0.5,0.5-0.8c0.2-0.4,0.2-0.7,0.2-1.1
			c0-0.4-0.2-0.6-0.5-0.8c-0.2-0.1-0.5-0.1-0.7,0c-0.2,0.1-0.4,0.2-0.7,0.5c-0.2,0.2-0.4,0.5-0.7,0.7c-0.2,0.3-0.5,0.5-0.7,0.8
			c-0.3,0.3-0.6,0.5-0.8,0.7c-0.3,0.2-0.7,0.3-1.1,0.3c-0.4,0-0.8-0.1-1.3-0.3c-1-0.5-1.6-1.2-1.9-2.1c-0.2-0.9-0.1-1.9,0.4-3
			c0.6-1.3,1.4-2.2,2.6-2.7l1,2.2c-0.4,0.1-0.7,0.3-1,0.5c-0.3,0.3-0.5,0.6-0.7,0.9c-0.2,0.4-0.2,0.8-0.2,1.1c0,0.4,0.2,0.6,0.5,0.8
			c0.3,0.1,0.6,0.1,0.8,0c0.3-0.1,0.6-0.4,0.8-0.6c0.2-0.3,0.5-0.6,0.8-0.9c0.3-0.3,0.6-0.6,1-0.9c0.3-0.3,0.7-0.4,1.2-0.5
			c0.5-0.1,0.9,0,1.4,0.2c1,0.4,1.6,1.1,1.8,2.1c0.2,1,0.1,1.9-0.3,2.9C140.3,107.7,139.6,108.6,138.6,109z"/>
	</g>
	<circle class="st24" cx="78.5" cy="78.5" r="51.4"/>
	<polygon class="st3" points="77.4,36.7 110.4,105.1 77.5,94 44.3,105.3 	"/>
	<polygon class="st24" points="77.6,48.8 77.5,88.3 54.6,96.3 	"/>
</g>
</svg>
