<?xml version="1.0" encoding="UTF-8"?>
<svg id="Layer_1" data-name="Layer 1" xmlns="http://www.w3.org/2000/svg" viewBox="0 0 143.74 105.74">
  <g>
    <g>
      <g>
        <path d="M107.8,57.87v-2.66h-1.05v-.5h2.68v.5h-1.05v2.66h-.59Z"/>
        <path d="M109.88,57.87v-3.16h.48l1.38,2.31h-.25l1.36-2.31h.48v3.16s-.56,0-.56,0v-2.29h.11l-1.15,1.93h-.27l-1.17-1.93h.14v2.29h-.56Z"/>
      </g>
      <path d="M76.7,85.01h-1.76v-1.04h4.8v1.04h-1.76v4.47h-1.27v-4.47Z"/>
      <path d="M83.54,88.3h-2.56l-.49,1.18h-1.31l2.45-5.51h1.26l2.46,5.51h-1.34l-.49-1.18ZM83.14,87.33l-.87-2.11-.87,2.11h1.75Z"/>
      <path d="M86.48,89.39c-.41-.12-.73-.27-.98-.46l.43-.96c.24.17.52.31.84.42.33.1.65.16.98.16.36,0,.63-.05.8-.16.17-.11.26-.25.26-.43,0-.13-.05-.24-.15-.33-.1-.09-.23-.16-.39-.21-.16-.05-.38-.11-.65-.17-.42-.1-.76-.2-1.03-.3-.27-.1-.5-.26-.69-.48-.19-.22-.29-.51-.29-.88,0-.32.09-.61.26-.87.17-.26.43-.47.78-.62.35-.15.77-.23,1.28-.23.35,0,.69.04,1.03.13.34.08.63.2.88.36l-.39.97c-.51-.29-1.02-.43-1.53-.43-.36,0-.62.06-.79.17-.17.12-.26.27-.26.46s.1.33.29.42c.2.09.5.18.9.27.42.1.76.2,1.03.3.27.1.5.26.69.47.19.22.29.51.29.87,0,.31-.09.6-.26.86-.18.26-.44.47-.79.62-.35.15-.78.23-1.28.23-.44,0-.86-.06-1.26-.18Z"/>
      <g>
        <path d="M69.31,65.1h5.35c1.28,0,2.41.24,3.39.73.98.49,1.74,1.17,2.29,2.06.54.89.82,1.92.82,3.09s-.27,2.21-.82,3.09c-.54.89-1.31,1.57-2.29,2.06-.98.49-2.11.73-3.39.73h-5.35v-11.77ZM74.52,74.64c1.18,0,2.12-.33,2.82-.98.7-.66,1.05-1.54,1.05-2.66s-.35-2.01-1.05-2.66c-.7-.66-1.64-.98-2.82-.98h-2.49v7.3h2.49Z"/>
        <path d="M93.16,76.87l-.02-7.06-3.46,5.82h-1.23l-3.45-5.67v6.91h-2.56v-11.77h2.25l4.4,7.31,4.34-7.31h2.24l.03,11.77h-2.56Z"/>
      </g>
      <rect x="69.31" y="79.85" width="26.41" height="1.04"/>
      <path d="M103.12,54.71h0s0,0,0,0c0,0,0,0,0,0h0c-6.62-1.57-13.52-2.39-20.61-2.37-7.09-.02-14,.8-20.61,2.37h0s0,0,0,0c0,0,0,0,0,0h0c-2.99,8.66-4.67,17.93-4.8,27.58,6.82,9.38,15.49,17.37,25.41,23.45,9.93-6.08,18.59-14.07,25.41-23.45-.13-9.65-1.81-18.93-4.8-27.58ZM82.51,100c-7.47-4.57-15.26-11.88-20.39-18.95.1-7.26,1.36-15.54,3.61-22.06h0s0,0,0,0c0,0,0,0,0,0h0c4.97-1.18,11.41-1.8,16.78-1.78,5.37-.01,11.81.61,16.78,1.78h0s0,0,0,0c0,0,0,0,0,0h0c2.25,6.52,3.51,14.79,3.61,22.06-5.13,7.06-12.92,14.37-20.39,18.95Z"/>
    </g>
    <g>
      <path d="M36.36,75.03c-1-.23-1.84.46-2.48,1.1-.5.58-.95,1.25-1.38,2.02.12-.93.25-1.82.4-2.65.42-2.59.82-5.32,1.23-8.33.16-.92.28-1.83.39-2.71l.07-.54c0-.15.01-.29.02-.44.01-.18.03-.38.03-.6,0-.18,0-.39-.08-.54l-.05-.06c-.22-.23-.59-.22-.81,0-.14.14-.09.3-.07.36v.32c0,.15-.01.3-.03.46-.01.17-.03.33-.03.47-.07.58-.16,1.16-.24,1.72-.08.5-.15.99-.21,1.48-.39,2.73-.82,5.53-1.28,8.32-.26,1.42-.46,2.83-.65,4.2-.1.73-.2,1.46-.31,2.18-.06.14-.1.3-.14.46l-.04.17c-.05.14-.09.29-.12.45-.03.11-.06.22-.1.38,0,.09-.02.17-.03.26-.06.42-.12.86.14,1.27.1.2.3.31.51.31.05,0,.09,0,.14-.02.23-.05.38-.24.38-.43.12-.83.24-1.63.37-2.42.11.06.24.09.36.07,1.05-.06,1.99-1.08,2.49-1.63.62-.66,1.45-1.73,1.88-2.99.26-.46.35-1.05.35-1.46,0-.55-.22-1.13-.71-1.21ZM34.71,76.83c.18-.21.71-.81,1.2-.87.1.28,0,.65-.08,1.04-.2.67-.56,1.27-.93,1.9-.48.67-.97,1.23-1.52,1.71-.32.32-.7.66-1.14.74.25-.68.55-1.35.9-2.05.49-.98.99-1.76,1.57-2.46Z"/>
      <path d="M45.99,76.51c-.17-.05-.35-.01-.48.1-1.36,1.15-2.36,2.52-3.4,4.04-.03.03-.06.06-.08.09.03-1.35-.01-2.7-.06-4.01l-.03-.8c-.04-.22-.2-.39-.42-.43-.21-.04-.42.04-.51.18-.61.65-1.05,1.42-1.49,2.17-.14.24-.27.47-.42.71-.28.52-.65,1.21-1.11,1.79,0-.36.08-.76.15-1.1l.05-.2c.2-.76.4-1.54.36-2.4.05-.22,0-.37-.07-.51l-.06-.12c-.1-.13-.27-.19-.45-.15-.2.04-.36.19-.4.34-.08.18-.06.35-.04.51,0,.07.02.15.02.23,0,.17-.04.37-.08.58-.02.09-.04.19-.05.27-.04.21-.09.42-.14.62-.1.43-.21.88-.26,1.32-.07.46-.16,1.58.33,1.92.06.04.14.08.24.1v.03s.02-.02.02-.02c.13.02.29,0,.48-.11.38-.16.65-.51.89-.87.26-.41.53-.87.75-1.28.25-.37.47-.76.7-1.15.18-.3.35-.61.54-.91.03,1.63.03,3.22-.02,4.86-.51.8-1.05,1.71-1.66,2.79-1.24,2.33-1.77,4.91-2.13,7.12-.17.8-.34,1.85-.13,2.88.12.39.38.68.72.8.13.05.27.07.41.07.25,0,.5-.07.71-.21.92-.42,1.27-1.39,1.52-2.26.41-1.17.6-2.42.79-3.65.25-1.65.49-3.44.72-5.33.03-.33.04-.68.05-1.01.01-.34.03-.67.05-.98.07-.11.13-.21.19-.31.09-.16.18-.3.31-.47,1.12-1.56,2.28-3.18,3.65-4.48.13-.1.2-.25.17-.4-.03-.16-.16-.3-.33-.35ZM38.14,95.03s-.09-.21-.12-.3c-.02-.05-.03-.11-.05-.15,0-.41,0-.91.08-1.33.05-.96.26-1.94.48-2.89l.08-.35c.31-1.35.64-2.42,1.03-3.35.35-.8.74-1.57,1.18-2.32-.07,1-.17,2.05-.32,3.09-.09.54-.17,1.09-.25,1.65-.24,1.66-.48,3.37-1.15,4.89l-.06.16c-.11.27-.21.52-.44.72-.09.09-.23.13-.42.18h-.03Z"/>
    </g>
  </g>
  <g>
    <path d="M38.43,35.11c-.05-.31-.09-.63-.14-.98h-.07c-.34.74-.89,1.29-1.63,1.66-.74.37-1.59.55-2.55.55s-1.73-.11-2.38-.32c-.65-.21-1.18-.54-1.59-.96-.41-.43-.71-.94-.89-1.53-.18-.59-.27-1.24-.27-1.96,0-.77.09-1.45.26-2.02.17-.57.45-1.06.84-1.48.39-.42.91-.77,1.58-1.07.66-.3,1.48-.54,2.47-.75l2.43-.52c.66-.14,1.13-.35,1.4-.63.27-.28.41-.67.41-1.18,0-1.02-.52-1.53-1.57-1.53-.59,0-1.03.15-1.3.44-.27.29-.42.88-.44,1.75h-5.35c0-1.2.24-2.17.72-2.89.48-.72,1.07-1.28,1.78-1.68.71-.4,1.47-.66,2.29-.79s1.59-.2,2.29-.2c1.07,0,2.06.08,2.96.23.9.15,1.68.43,2.33.83.65.4,1.15.94,1.51,1.62.35.68.53,1.56.53,2.64v8.07c0,.77.03,1.46.1,2.05.07.59.23,1.1.48,1.53h-5.95c-.11-.29-.19-.58-.24-.89ZM37.85,32.05c.3-.45.45-1.13.45-2.04v-1.98h-.07c-.18.22-.46.36-.84.41-.38.05-.79.17-1.25.35-.48.2-.81.47-.99.81-.18.34-.27.78-.27,1.33s.14.98.41,1.31c.27.33.64.49,1.1.49.68,0,1.18-.22,1.47-.67Z"/>
    <path d="M55.2,24.32c-.07-.42-.17-.76-.31-1.02-.25-.47-.71-.7-1.37-.7-.34,0-.63.08-.87.23-.24.15-.43.43-.56.83-.14.4-.23.93-.29,1.59-.06.66-.09,1.5-.09,2.52s.03,1.86.09,2.52c.06.66.15,1.19.29,1.57.14.39.32.66.56.81.24.15.53.23.87.23.57,0,1.01-.19,1.32-.58.31-.39.46-1.1.46-2.14v-1.07h5.55c0,1.3-.13,2.42-.38,3.33-.25.92-.67,1.67-1.27,2.26-1.16,1.1-3.06,1.65-5.68,1.65-1.19,0-2.27-.09-3.25-.28-.98-.18-1.82-.58-2.52-1.18-.7-.6-1.24-1.45-1.63-2.54-.39-1.09-.58-2.53-.58-4.33,0-1.96.22-3.53.65-4.71.43-1.18,1.02-2.09,1.76-2.72.74-.63,1.61-1.05,2.62-1.25,1-.2,2.09-.31,3.25-.31,1.37,0,2.5.17,3.4.51.9.34,1.62.81,2.16,1.41.54.6.91,1.33,1.13,2.17.22.85.33,1.79.33,2.83h-5.55c0-.67-.03-1.22-.1-1.64Z"/>
    <path d="M68.35,19.46v2.64h.07c.34-1,.89-1.76,1.64-2.28.75-.52,1.59-.78,2.5-.78h.99v5.15c-.27-.04-.54-.07-.79-.1-.25-.02-.5-.03-.75-.03-1.1,0-1.95.21-2.55.64-.6.43-.91,1.19-.91,2.29v9.01h-6.16v-16.55h5.96Z"/>
    <path d="M89.57,30.93c-.17,1.04-.53,1.96-1.08,2.77-.55.81-1.34,1.45-2.38,1.93-1.04.48-2.43.72-4.16.72s-3.23-.22-4.28-.66c-1.05-.44-1.84-1.05-2.36-1.83s-.86-1.7-1.01-2.75c-.15-1.05-.22-2.18-.22-3.38,0-1.08.09-2.14.26-3.18.17-1.04.53-1.97,1.08-2.78.55-.82,1.34-1.47,2.38-1.97,1.04-.5,2.43-.75,4.16-.75s3.23.23,4.28.69c1.05.46,1.84,1.09,2.36,1.88.52.8.86,1.72,1.01,2.77.15,1.05.22,2.18.22,3.38,0,1.08-.09,2.14-.26,3.18ZM80.31,30.3c.05.66.14,1.19.27,1.57.14.39.31.65.53.79.22.14.5.21.84.21s.63-.07.86-.21c.23-.14.41-.41.53-.79.13-.39.21-.91.26-1.57.05-.66.07-1.51.07-2.55s-.02-1.89-.07-2.57c-.05-.67-.13-1.2-.26-1.59-.13-.39-.3-.65-.53-.79-.23-.14-.51-.21-.86-.21s-.62.07-.84.21c-.22.14-.39.41-.53.79-.14.39-.23.92-.27,1.59-.05.67-.07,1.53-.07,2.57s.02,1.89.07,2.55Z"/>
    <path d="M104.76,32.54h-.06c-1.32,2.55-3.3,3.84-6.2,3.84-4.88,0-6.98-3.96-6.98-8.43,0-4.78,2.33-8.49,7.2-8.49,2.64,0,5.13,1.45,5.98,4h.06v-9.91h1.2v22.46h-1.2v-3.46ZM104.73,27.95c0-3.78-1.86-7.46-6.01-7.46s-6.01,3.55-6.01,7.46,1.89,7.39,6.04,7.39,5.98-3.68,5.98-7.39Z"/>
    <path d="M120.42,33.01c0,.94,0,1.95,1.07,1.95.22,0,.5-.03.88-.09v1.01c-.35.06-.66.13-.98.13-1.89,0-2.17-1.04-2.17-2.36v-.85h-.06c-.75,1.92-2.93,3.59-6.01,3.59s-5.41-1.16-5.41-4.56c0-3.78,3.27-4.56,5.95-4.78,5.35-.38,5.57-.72,5.57-3.37,0-.72-.82-3.18-4.5-3.18-2.89,0-4.81,1.51-4.97,4.31h-1.2c.16-3.55,2.36-5.35,6.17-5.35,2.83,0,5.66.88,5.66,4.22v9.34ZM119.23,26.82c-.94,1.07-3.52.94-5.85,1.26-2.83.31-4.44,1.32-4.44,3.74,0,1.95,1.42,3.52,4.25,3.52,5.44,0,6.04-4.66,6.04-5.51v-3.02Z"/>
    <path d="M128.92,20.87h-3.52v11.29c0,2.61,1.23,2.86,3.49,2.8v1.04c-2.45.16-4.81-.19-4.69-3.84v-11.29h-2.99v-1.04h2.99v-5.03h1.2v5.03h3.52v1.04Z"/>
    <path d="M141.78,33.01c0,.94,0,1.95,1.07,1.95.22,0,.5-.03.88-.09v1.01c-.35.06-.66.13-.98.13-1.89,0-2.17-1.04-2.17-2.36v-.85h-.06c-.75,1.92-2.93,3.59-6.01,3.59s-5.41-1.16-5.41-4.56c0-3.78,3.27-4.56,5.95-4.78,5.35-.38,5.57-.72,5.57-3.37,0-.72-.82-3.18-4.5-3.18-2.89,0-4.81,1.51-4.97,4.31h-1.2c.16-3.55,2.36-5.35,6.17-5.35,2.83,0,5.66.88,5.66,4.22v9.34ZM140.59,26.82c-.94,1.07-3.52.94-5.85,1.26-2.83.31-4.44,1.32-4.44,3.74,0,1.95,1.42,3.52,4.25,3.52,5.44,0,6.04-4.66,6.04-5.51v-3.02Z"/>
    <path d="M13.84,36.35L1.56,23.91c-.97.42-1.56.62-1.56.62l13.84,14.02c11.54-10.76,11.71-22.88,11.56-25.89-.21,4.79-1.93,14.71-11.56,23.69Z"/>
    <path d="M23.18,8.8v-3.41L17.79,0C17.79,14.02,0,20.13,0,20.13l13.84,14.02c10.94-10.2,11.66-21.62,11.58-25.35h-2.23Z"/>
  </g>
</svg>