<?xml version="1.0" encoding="UTF-8"?>
<svg id="Layer_1" data-name="Layer 1" xmlns="http://www.w3.org/2000/svg" viewBox="0 0 181.41 48.65">
  <defs>
    <style>
      .cls-1 {
        fill: #e50b14;
      }
    </style>
  </defs>
  <path d="M48.5,44.32c-.06-.39-.12-.8-.17-1.24h-.09c-.43.93-1.12,1.63-2.05,2.1-.94.47-2.01.7-3.22.7s-2.18-.14-3.01-.4c-.82-.27-1.49-.68-2.01-1.22-.52-.54-.89-1.18-1.12-1.93-.23-.75-.35-1.57-.35-2.47,0-.98.11-1.83.32-2.55.22-.72.57-1.34,1.06-1.87.49-.53,1.15-.98,1.99-1.35.84-.37,1.87-.69,3.11-.94l3.07-.66c.84-.18,1.43-.44,1.77-.79.35-.35.52-.84.52-1.49,0-1.29-.66-1.93-1.98-1.93-.75,0-1.29.19-1.64.56-.35.37-.53,1.11-.56,2.21h-6.75c0-1.52.3-2.73.91-3.65.6-.91,1.35-1.62,2.25-2.12.89-.5,1.86-.84,2.89-1s2-.25,2.89-.25c1.35,0,2.6.1,3.74.29,1.14.19,2.12.54,2.94,1.04.82.5,1.45,1.18,1.9,2.04.45.86.67,1.97.67,3.34v10.18c0,.98.04,1.84.13,2.58.09.75.29,1.39.61,1.93h-7.51c-.14-.36-.24-.73-.3-1.12ZM47.77,40.45c.37-.56.56-1.42.56-2.58v-2.5h-.09c-.23.28-.58.46-1.06.52-.48.06-1,.21-1.58.44-.61.26-1.02.6-1.25,1.02-.23.42-.35.98-.35,1.67s.17,1.24.52,1.65c.35.41.81.62,1.38.62.86,0,1.48-.28,1.86-.85Z"/>
  <path d="M69.67,30.69c-.09-.53-.22-.96-.39-1.29-.32-.59-.89-.89-1.73-.89-.43,0-.8.1-1.1.29-.3.19-.54.54-.71,1.04-.17.5-.29,1.17-.37,2-.07.83-.11,1.89-.11,3.18s.04,2.35.11,3.18c.07.84.19,1.5.37,1.99.17.49.41.83.71,1.02.3.19.67.29,1.1.29.72,0,1.27-.24,1.66-.73.39-.49.58-1.39.58-2.7v-1.35h7c0,1.65-.16,3.05-.47,4.21-.32,1.16-.85,2.11-1.6,2.86-1.47,1.39-3.86,2.09-7.17,2.09-1.5,0-2.86-.12-4.1-.35-1.24-.23-2.3-.73-3.17-1.49-.88-.76-1.56-1.83-2.05-3.2-.49-1.38-.73-3.2-.73-5.46,0-2.47.27-4.45.82-5.94.55-1.49,1.29-2.64,2.22-3.43.94-.8,2.04-1.33,3.3-1.58,1.27-.26,2.63-.39,4.1-.39,1.73,0,3.16.21,4.3.64,1.14.43,2.04,1.02,2.72,1.78.68.76,1.15,1.67,1.43,2.74.27,1.07.41,2.26.41,3.57h-7c0-.85-.04-1.54-.13-2.06Z"/>
  <path d="M86.26,24.56v3.34h.08c.43-1.26,1.12-2.22,2.07-2.88.95-.66,2-.98,3.15-.98h1.25v6.5c-.35-.05-.68-.09-.99-.12-.32-.03-.63-.04-.95-.04-1.38,0-2.46.27-3.22.81-.76.54-1.15,1.5-1.15,2.89v11.37h-7.78v-20.88h7.53Z"/>
  <path d="M113.04,39.04c-.22,1.31-.67,2.48-1.36,3.49-.69,1.02-1.69,1.83-3,2.43-1.31.6-3.06.91-5.25.91s-4.08-.28-5.4-.83c-1.33-.55-2.32-1.33-2.98-2.32s-1.09-2.15-1.27-3.47c-.19-1.33-.28-2.75-.28-4.26,0-1.36.11-2.7.32-4.01.22-1.31.67-2.48,1.36-3.51.69-1.03,1.69-1.86,3-2.49,1.31-.63,3.06-.95,5.25-.95s4.08.29,5.4.87c1.33.58,2.32,1.37,2.98,2.37.66,1,1.09,2.17,1.27,3.49.19,1.33.28,2.75.28,4.26,0,1.36-.11,2.7-.32,4.01ZM101.36,38.25c.06.84.17,1.5.35,1.99.17.49.4.82.67,1,.27.18.63.27,1.06.27s.79-.09,1.08-.27c.29-.18.51-.51.67-1,.16-.49.27-1.15.32-1.99.06-.83.09-1.91.09-3.22s-.03-2.39-.09-3.24c-.06-.85-.17-1.52-.32-2-.16-.49-.38-.82-.67-1-.29-.18-.65-.27-1.08-.27s-.79.09-1.06.27c-.27.18-.5.51-.67,1-.17.49-.29,1.16-.35,2-.06.85-.09,1.93-.09,3.24s.03,2.38.09,3.22Z"/>
  <path d="M132.22,41.07h-.08c-1.67,3.22-4.17,4.84-7.82,4.84-6.16,0-8.81-5-8.81-10.64,0-6.03,2.94-10.72,9.09-10.72,3.34,0,6.47,1.83,7.54,5.04h.08v-12.51h1.51v28.35h-1.51v-4.37ZM132.18,35.27c0-4.76-2.34-9.41-7.58-9.41s-7.58,4.49-7.58,9.41,2.38,9.33,7.62,9.33,7.54-4.65,7.54-9.33Z"/>
  <path d="M151.99,41.67c0,1.19,0,2.46,1.35,2.46.28,0,.64-.04,1.11-.12v1.27c-.44.08-.83.16-1.23.16-2.38,0-2.74-1.31-2.74-2.98v-1.07h-.08c-.95,2.42-3.69,4.53-7.58,4.53s-6.83-1.47-6.83-5.76c0-4.76,4.13-5.76,7.5-6.04,6.75-.48,7.03-.91,7.03-4.25,0-.91-1.03-4.01-5.68-4.01-3.65,0-6.08,1.91-6.27,5.44h-1.51c.2-4.49,2.98-6.75,7.78-6.75,3.57,0,7.15,1.11,7.15,5.32v11.79ZM150.48,33.84c-1.19,1.35-4.45,1.19-7.39,1.59-3.57.4-5.6,1.67-5.6,4.73,0,2.46,1.79,4.45,5.36,4.45,6.87,0,7.62-5.88,7.62-6.95v-3.81Z"/>
  <path d="M162.71,26.34h-4.45v14.25c0,3.3,1.55,3.61,4.41,3.53v1.31c-3.1.2-6.08-.24-5.92-4.84v-14.25h-3.77v-1.31h3.77v-6.35h1.51v6.35h4.45v1.31Z"/>
  <path d="M178.95,41.67c0,1.19,0,2.46,1.35,2.46.28,0,.64-.04,1.11-.12v1.27c-.44.08-.83.16-1.23.16-2.38,0-2.74-1.31-2.74-2.98v-1.07h-.08c-.95,2.42-3.69,4.53-7.58,4.53s-6.83-1.47-6.83-5.76c0-4.76,4.13-5.76,7.5-6.04,6.75-.48,7.03-.91,7.03-4.25,0-.91-1.03-4.01-5.68-4.01-3.65,0-6.08,1.91-6.27,5.44h-1.51c.2-4.49,2.98-6.75,7.78-6.75,3.57,0,7.15,1.11,7.15,5.32v11.79ZM177.44,33.84c-1.19,1.35-4.45,1.19-7.39,1.59-3.57.4-5.6,1.67-5.6,4.73,0,2.46,1.79,4.45,5.36,4.45,6.87,0,7.62-5.88,7.62-6.95v-3.81Z"/>
  <path d="M17.46,45.87L1.97,30.17c-1.22.53-1.97.78-1.97.78l17.46,17.69c14.57-13.58,14.78-28.87,14.59-32.67-.27,6.05-2.43,18.57-14.59,29.9Z"/>
  <path class="cls-1" d="M29.26,11.1v-4.3L22.46,0C22.46,17.69,0,25.4,0,25.4l17.46,17.69c13.81-12.88,14.72-27.29,14.61-31.99h-2.82Z"/>
</svg>