<svg width="31" height="20" viewBox="0 0 31 20" fill="none" xmlns="http://www.w3.org/2000/svg">
<path d="M1.5 0C0.947715 0 0.5 0.447715 0.5 1C0.5 1.55228 0.947715 2 1.5 2V1V0ZM23.5 1H24.5V0H23.5V1ZM22.7929 19.7071C23.1834 20.0976 23.8166 20.0976 24.2071 19.7071L30.5711 13.3431C30.9616 12.9526 30.9616 12.3195 30.5711 11.9289C30.1805 11.5384 29.5474 11.5384 29.1569 11.9289L23.5 17.5858L17.8431 11.9289C17.4526 11.5384 16.8195 11.5384 16.4289 11.9289C16.0384 12.3195 16.0384 12.9526 16.4289 13.3431L22.7929 19.7071ZM1.5 1V2H23.5V1V0H1.5V1ZM23.5 1H22.5V19H23.5H24.5V1H23.5Z" fill="#636363"/>
</svg>
