<?xml version="1.0" encoding="UTF-8"?>
<svg id="Layer_1" data-name="Layer 1" xmlns="http://www.w3.org/2000/svg" viewBox="0 0 177.94 37.8">
  <defs>
    <style>
      .cls-1 {
        fill: #007ec6;
      }
    </style>
  </defs>
  <g>
    <g>
      <g>
        <path class="cls-1" d="M44.36,24.87h-1.51v-.89h4.1v.89h-1.51v3.82h-1.09v-3.82Z"/>
        <path class="cls-1" d="M50.26,27.68h-2.18l-.42,1.01h-1.12l2.1-4.7h1.08l2.1,4.7h-1.14l-.42-1.01ZM49.91,26.85l-.75-1.8-.75,1.8h1.49Z"/>
        <path class="cls-1" d="M52.01,28.22l.37-.82c.4.29.99.49,1.55.49.65,0,.91-.22.91-.5,0-.88-2.73-.28-2.73-2.02,0-.8.65-1.46,1.98-1.46.59,0,1.2.14,1.63.42l-.34.83c-.44-.25-.89-.37-1.3-.37-.64,0-.89.24-.89.54,0,.87,2.73.27,2.73,2,0,.79-.65,1.46-2,1.46-.75,0-1.5-.22-1.92-.54Z"/>
        <path class="cls-1" d="M60.95,28.68v-2.82s-1.39,2.32-1.39,2.32h-.49l-1.38-2.26v2.76h-1.02v-4.7h.9l1.76,2.92,1.73-2.92h.89v4.7s-1.01,0-1.01,0Z"/>
        <path class="cls-1" d="M66.18,27.68h-2.18l-.42,1.01h-1.12l2.1-4.7h1.08l2.1,4.7h-1.14l-.42-1.01ZM65.84,26.85l-.75-1.8-.75,1.8h1.49Z"/>
        <path class="cls-1" d="M72.55,23.98v4.7h-.89l-2.35-2.86v2.86h-1.07v-4.7h.9l2.34,2.86v-2.86h1.07Z"/>
        <path class="cls-1" d="M73.66,23.98h1.09v4.7h-1.09v-4.7Z"/>
        <path class="cls-1" d="M78.96,27.68h-2.18l-.42,1.01h-1.12l2.1-4.7h1.07l2.1,4.7h-1.14l-.42-1.01ZM78.62,26.85l-.75-1.8-.75,1.8h1.49Z"/>
      </g>
      <g>
        <path class="cls-1" d="M42.86,9.04h3.33c2.67,0,4.47,1.76,4.47,4.21s-1.8,4.21-4.47,4.21h-3.33v-8.42ZM46.14,16.9c2.38,0,3.91-1.52,3.91-3.66s-1.53-3.66-3.91-3.66h-2.67v7.31h2.67Z"/>
        <path class="cls-1" d="M51.31,14.32c0-1.86,1.33-3.19,3.14-3.19s3.14,1.32,3.14,3.19-1.33,3.19-3.14,3.19-3.14-1.32-3.14-3.19ZM56.97,14.32c0-1.58-1.08-2.65-2.53-2.65s-2.53,1.07-2.53,2.65,1.08,2.65,2.53,2.65,2.53-1.07,2.53-2.65Z"/>
        <path class="cls-1" d="M58.16,14.32c0-1.88,1.33-3.19,3.17-3.19,1,0,1.86.38,2.38,1.15l-.44.32c-.46-.64-1.15-.94-1.94-.94-1.48,0-2.56,1.06-2.56,2.65s1.08,2.65,2.56,2.65c.78,0,1.48-.3,1.94-.94l.44.32c-.52.76-1.38,1.15-2.38,1.15-1.84,0-3.17-1.32-3.17-3.19Z"/>
        <path class="cls-1" d="M70.24,11.18v6.28h-.58v-1.35c-.41.88-1.26,1.39-2.37,1.39-1.6,0-2.62-.9-2.62-2.66v-3.67h.6v3.62c0,1.42.76,2.16,2.07,2.16,1.42,0,2.3-.95,2.3-2.44v-3.34h.6Z"/>
        <path class="cls-1" d="M81.96,13.79v3.67h-.6v-3.62c0-1.42-.73-2.16-1.96-2.16-1.42,0-2.3.95-2.3,2.44v3.34h-.6v-3.62c0-1.42-.73-2.16-1.96-2.16-1.42,0-2.3.95-2.3,2.44v3.34h-.6v-6.28h.58v1.35c.41-.88,1.26-1.39,2.4-1.39s1.96.52,2.3,1.52c.41-.91,1.32-1.52,2.54-1.52,1.52,0,2.5.9,2.5,2.66Z"/>
        <path class="cls-1" d="M88.85,14.46h-5.4c.06,1.49,1.15,2.5,2.66,2.5.79,0,1.53-.29,2.01-.88l.35.4c-.55.67-1.42,1.02-2.37,1.02-1.9,0-3.23-1.32-3.23-3.19s1.29-3.19,3.01-3.19,2.99,1.3,2.99,3.16c0,.05-.01.11-.01.17ZM83.46,13.99h4.81c-.08-1.36-1.07-2.33-2.4-2.33s-2.31.96-2.4,2.33Z"/>
        <path class="cls-1" d="M95.44,13.79v3.67h-.6v-3.62c0-1.42-.76-2.16-2.03-2.16-1.48,0-2.38.95-2.38,2.44v3.34h-.6v-6.28h.58v1.36c.42-.88,1.3-1.41,2.49-1.41,1.53,0,2.55.9,2.55,2.66Z"/>
        <path class="cls-1" d="M100.25,17.06c-.31.3-.82.44-1.29.44-1.11,0-1.71-.65-1.71-1.71v-4.1h-1.15v-.52h1.15v-1.37h.6v1.37h2v.52h-2v4.04c0,.81.4,1.25,1.17,1.25.37,0,.72-.12.97-.35l.25.42Z"/>
        <path class="cls-1" d="M109.66,17.46v-5.58s-2.78,4.62-2.78,4.62h-.7l-2.77-4.55v5.51h-1.49v-8.42h1.29l3.34,5.58,3.28-5.58h1.29v8.42s-1.47,0-1.47,0Z"/>
        <path class="cls-1" d="M118.08,13.69v3.76h-1.42v-.78c-.36.55-1.06.87-2.02.87-1.47,0-2.39-.81-2.39-1.92s.72-1.91,2.67-1.91h1.66v-.1c0-.88-.53-1.39-1.6-1.39-.72,0-1.47.24-1.95.64l-.59-1.09c.69-.53,1.68-.79,2.72-.79,1.85,0,2.92.88,2.92,2.73ZM116.57,15.45v-.75h-1.55c-1.02,0-1.3.38-1.3.85,0,.54.46.89,1.23.89s1.37-.34,1.62-1Z"/>
        <path class="cls-1" d="M125.6,13.78v3.68h-1.5v-3.49c0-1.14-.57-1.7-1.53-1.7-1.07,0-1.79.65-1.79,1.94v3.25h-1.5v-6.42h1.43v.83c.49-.59,1.27-.9,2.21-.9,1.54,0,2.68.88,2.68,2.81Z"/>
        <path class="cls-1" d="M132.17,13.69v3.76h-1.42v-.78c-.36.55-1.06.87-2.02.87-1.47,0-2.39-.81-2.39-1.92s.72-1.91,2.67-1.91h1.66v-.1c0-.88-.53-1.39-1.6-1.39-.72,0-1.47.24-1.95.64l-.59-1.09c.69-.53,1.68-.79,2.72-.79,1.85,0,2.92.88,2.92,2.73ZM130.66,15.45v-.75h-1.55c-1.02,0-1.3.38-1.3.85,0,.54.46.89,1.23.89s1.37-.34,1.62-1Z"/>
        <path class="cls-1" d="M139.8,11.03v5.45c0,2.33-1.21,3.39-3.46,3.39-1.2,0-2.39-.31-3.13-.91l.67-1.13c.57.47,1.48.77,2.37.77,1.42,0,2.04-.65,2.04-1.95v-.34c-.53.58-1.29.85-2.15.85-1.84,0-3.25-1.25-3.25-3.11s1.41-3.09,3.25-3.09c.9,0,1.7.29,2.22.93v-.85h1.43ZM138.32,14.05c0-1.08-.82-1.82-1.95-1.82s-1.96.73-1.96,1.82.82,1.84,1.96,1.84,1.95-.75,1.95-1.84Z"/>
        <path class="cls-1" d="M147.06,14.73h-5.04c.18.94.96,1.54,2.08,1.54.72,0,1.29-.23,1.74-.7l.81.93c-.58.69-1.48,1.05-2.59,1.05-2.15,0-3.55-1.38-3.55-3.29s1.41-3.28,3.32-3.28,3.25,1.31,3.25,3.32c0,.12-.01.3-.02.44ZM142.01,13.73h3.64c-.12-.93-.83-1.56-1.82-1.56s-1.68.63-1.83,1.56Z"/>
        <path class="cls-1" d="M158.55,13.78v3.68h-1.5v-3.49c0-1.14-.53-1.7-1.44-1.7-.99,0-1.67.65-1.67,1.92v3.26h-1.5v-3.49c0-1.14-.53-1.7-1.44-1.7-1,0-1.67.65-1.67,1.92v3.26h-1.5v-6.42h1.43v.82c.48-.58,1.23-.89,2.1-.89.94,0,1.72.35,2.16,1.07.52-.66,1.38-1.07,2.4-1.07,1.55,0,2.63.88,2.63,2.81Z"/>
        <path class="cls-1" d="M165.82,14.73h-5.04c.18.94.96,1.54,2.08,1.54.72,0,1.29-.23,1.74-.7l.81.93c-.58.69-1.48,1.05-2.59,1.05-2.15,0-3.55-1.38-3.55-3.29s1.41-3.28,3.32-3.28,3.25,1.31,3.25,3.32c0,.12-.01.3-.02.44ZM160.77,13.73h3.64c-.12-.93-.83-1.56-1.82-1.56s-1.68.63-1.83,1.56Z"/>
        <path class="cls-1" d="M172.89,13.78v3.68h-1.5v-3.49c0-1.14-.57-1.7-1.53-1.7-1.07,0-1.79.65-1.79,1.94v3.25h-1.5v-6.42h1.43v.83c.49-.59,1.27-.9,2.21-.9,1.54,0,2.68.88,2.68,2.81Z"/>
        <path class="cls-1" d="M177.94,17.11c-.36.29-.9.43-1.44.43-1.41,0-2.21-.75-2.21-2.16v-3.09h-1.06v-1.2h1.06v-1.47h1.5v1.47h1.72v1.2h-1.72v3.05c0,.63.31.96.89.96.31,0,.61-.08.84-.26l.42,1.07Z"/>
      </g>
    </g>
    <g>
      <path class="cls-1" d="M13.88,23.13h-1.25v-.74h3.4v.74h-1.25v3.16h-.9v-3.16Z"/>
      <path class="cls-1" d="M18.72,25.46h-1.81l-.35.84h-.92l1.74-3.9h.89l1.74,3.9h-.95l-.35-.84ZM18.43,24.77l-.62-1.49-.62,1.49h1.24Z"/>
      <path class="cls-1" d="M20.8,26.23c-.29-.08-.52-.19-.69-.33l.31-.68c.17.12.37.22.6.3.23.07.46.11.69.11.26,0,.45-.04.57-.11.12-.08.18-.18.18-.3,0-.09-.04-.17-.11-.23-.07-.06-.17-.11-.28-.15-.11-.04-.27-.08-.46-.12-.3-.07-.54-.14-.73-.21-.19-.07-.35-.18-.49-.34-.14-.16-.2-.36-.2-.62,0-.23.06-.43.18-.62.12-.18.31-.33.55-.44.25-.11.55-.16.9-.16.25,0,.49.03.73.09.24.06.45.14.62.26l-.28.68c-.36-.2-.72-.31-1.08-.31-.25,0-.44.04-.56.12-.12.08-.18.19-.18.32s.07.23.21.3c.14.07.35.13.64.19.3.07.54.14.73.21.19.07.35.18.49.33.14.15.2.36.2.62,0,.22-.06.43-.19.61-.12.18-.31.33-.56.44-.25.11-.55.16-.91.16-.31,0-.61-.04-.89-.13Z"/>
      <g>
        <path class="cls-1" d="M8.64,9.04h3.78c.9,0,1.7.17,2.4.52.69.35,1.23.83,1.62,1.46.38.63.58,1.36.58,2.19s-.19,1.56-.58,2.19c-.38.63-.92,1.11-1.62,1.46-.69.35-1.49.52-2.4.52h-3.78v-8.33ZM12.33,15.79c.83,0,1.5-.23,1.99-.7.5-.46.74-1.09.74-1.89s-.25-1.42-.74-1.89c-.5-.46-1.16-.7-1.99-.7h-1.76v5.16h1.76Z"/>
        <path class="cls-1" d="M25.53,17.37v-5s-2.46,4.12-2.46,4.12h-.87l-2.44-4.01v4.89h-1.81v-8.33h1.59l3.12,5.18,3.07-5.18h1.58l.02,8.33h-1.81Z"/>
      </g>
      <rect class="cls-1" x="8.64" y="19.48" width="18.69" height=".74"/>
      <path class="cls-1" d="M32.58,1.68h0s0,0,0,0c0,0,0,0,0,0h0C27.9.57,23.01-.01,17.99,0,12.97-.01,8.08.57,3.4,1.68h0s0,0,0,0c0,0,0,0,0,0h0C1.28,7.81.09,14.37,0,21.2c4.83,6.64,10.96,12.3,17.99,16.6,7.03-4.3,13.16-9.96,17.99-16.6-.09-6.83-1.28-13.4-3.4-19.53ZM17.99,33.74c-5.29-3.24-10.8-8.41-14.43-13.41.07-5.14.96-11,2.56-15.61h0s0,0,0,0c0,0,0,0,0,0h0c3.52-.83,8.08-1.27,11.88-1.26,3.8,0,8.36.43,11.88,1.26h0s0,0,0,0c0,0,0,0,0,0h0c1.59,4.61,2.49,10.47,2.56,15.62-3.63,5-9.15,10.17-14.43,13.41Z"/>
    </g>
  </g>
  <path class="cls-1" d="M35.89,3.91v-1.89h-.74v-.35h1.9v.35h-.74v1.89h-.42Z"/>
  <path class="cls-1" d="M37.36,3.91V1.68h.34l.98,1.63h-.18l.96-1.63h.34v2.24s-.39,0-.39,0v-1.62h.08l-.81,1.37h-.19l-.83-1.37h.1v1.62h-.4Z"/>
</svg>