<?xml version="1.0" encoding="UTF-8"?>
<svg id="Layer_1" data-name="Layer 1" xmlns="http://www.w3.org/2000/svg" viewBox="0 0 114.08 77.81">
  <path d="M81.39,5.33v-2.57h-1.01v-.48h2.58v.48h-1.01v2.57h-.57Z"/>
  <path d="M83.39,5.33v-3.04h.47l1.33,2.22h-.24l1.31-2.22h.47v3.04s-.53,0-.53,0v-2.2h.11l-1.1,1.86h-.26l-1.13-1.86h.13v2.2h-.54Z"/>
  <g>
    <path d="M41.8,74.38h-1.32v-.78h3.61v.78h-1.32v3.36h-.96v-3.36Z"/>
    <path d="M46.98,76.85h-1.92l-.37.89h-.98l1.84-4.14h.95l1.85,4.14h-1.01l-.37-.89ZM46.68,76.12l-.66-1.58-.66,1.58h1.31Z"/>
    <path d="M48.52,77.33l.33-.72c.35.25.87.43,1.37.43.57,0,.8-.19.8-.44,0-.77-2.41-.24-2.41-1.78,0-.7.57-1.29,1.74-1.29.52,0,1.05.12,1.44.37l-.3.73c-.38-.22-.78-.33-1.15-.33-.57,0-.79.21-.79.47,0,.76,2.41.24,2.41,1.76,0,.69-.57,1.28-1.76,1.28-.66,0-1.32-.2-1.68-.48Z"/>
    <path d="M56.39,77.74v-2.48s-1.22,2.05-1.22,2.05h-.43l-1.21-1.99v2.43h-.9v-4.14h.79l1.55,2.57,1.53-2.57h.79v4.14s-.89,0-.89,0Z"/>
    <path d="M60.99,76.85h-1.92l-.37.89h-.98l1.84-4.14h.95l1.85,4.14h-1.01l-.37-.89ZM60.69,76.12l-.66-1.58-.66,1.58h1.31Z"/>
    <path d="M66.59,73.6v4.14h-.79l-2.06-2.51v2.51h-.95v-4.14h.79l2.06,2.51v-2.51h.95Z"/>
    <path d="M67.57,73.6h.96v4.14h-.96v-4.14Z"/>
    <path d="M72.24,76.85h-1.92l-.37.89h-.98l1.84-4.14h.95l1.85,4.14h-1.01l-.37-.89ZM71.94,76.12l-.66-1.58-.66,1.58h1.31Z"/>
  </g>
  <path d="M51.45,31.46h-1.7v-1h4.62v1h-1.7v4.3h-1.23v-4.3Z"/>
  <path d="M58.03,34.63h-2.46l-.47,1.14h-1.26l2.36-5.3h1.21l2.37,5.3h-1.29l-.47-1.14ZM57.64,33.7l-.84-2.03-.84,2.03h1.68Z"/>
  <path d="M60.87,35.68c-.39-.11-.71-.26-.94-.44l.42-.92c.23.17.5.3.81.4.31.1.63.15.94.15.35,0,.61-.05.77-.16.17-.1.25-.24.25-.41,0-.13-.05-.23-.15-.31-.1-.08-.22-.15-.38-.2-.15-.05-.36-.11-.62-.17-.4-.1-.73-.19-.99-.29-.26-.1-.48-.25-.66-.46-.18-.21-.28-.49-.28-.85,0-.31.08-.59.25-.84.17-.25.42-.45.75-.59.34-.15.75-.22,1.23-.22.34,0,.67.04.99.12.32.08.61.2.85.35l-.38.93c-.49-.28-.98-.42-1.47-.42-.34,0-.6.06-.76.17-.16.11-.25.26-.25.44s.09.32.28.41c.19.09.48.18.87.26.4.1.73.19.99.29.26.1.48.25.66.45.18.21.28.49.28.84,0,.3-.08.58-.25.83-.17.25-.42.45-.76.59-.34.15-.75.22-1.23.22-.42,0-.82-.06-1.22-.17Z"/>
  <g>
    <path d="M44.33,12.3h5.15c1.23,0,2.32.23,3.26.7.94.47,1.68,1.13,2.2,1.98.52.85.79,1.85.79,2.98s-.26,2.13-.79,2.98c-.52.85-1.26,1.51-2.2,1.98-.94.47-2.03.7-3.26.7h-5.15v-11.33ZM49.34,21.47c1.13,0,2.04-.32,2.71-.95.67-.63,1.01-1.49,1.01-2.57s-.34-1.93-1.01-2.57c-.67-.63-1.58-.95-2.71-.95h-2.4v7.03h2.4Z"/>
    <path d="M67.3,23.63l-.02-6.8-3.33,5.6h-1.18l-3.32-5.46v6.65h-2.46v-11.33h2.17l4.24,7.04,4.18-7.04h2.15l.03,11.33h-2.46Z"/>
  </g>
  <rect x="44.33" y="26.5" width="25.43" height="1"/>
  <path d="M76.89,2.28h0s0,0,0,0c0,0,0,0,0,0h0C70.52.77,63.87-.02,57.04,0c-6.83-.02-13.48.77-19.85,2.28h0s0,0,0,0c0,0,0,0,0,0h0c-2.88,8.34-4.5,17.27-4.62,26.56,6.57,9.03,14.91,16.73,24.47,22.58,9.56-5.85,17.9-13.54,24.47-22.58-.13-9.29-1.74-18.22-4.62-26.56ZM57.04,45.9c-7.19-4.41-14.69-11.44-19.63-18.24.1-6.99,1.31-14.97,3.48-21.24h0s0,0,0,0c0,0,0,0,0,0h0c4.79-1.13,10.99-1.73,16.15-1.72,5.17-.01,11.37.59,16.15,1.72h0s0,0,0,0c0,0,0,0,0,0h0c2.17,6.28,3.38,14.25,3.48,21.24-4.94,6.8-12.44,13.84-19.63,18.24Z"/>
  <g>
    <path d="M0,58.72h2.81c2.25,0,3.78,1.48,3.78,3.55s-1.52,3.55-3.78,3.55H0v-7.11ZM2.77,65.37c2.01,0,3.3-1.28,3.3-3.09s-1.29-3.09-3.3-3.09H.52v6.17h2.25Z"/>
    <path d="M7.14,63.18c0-1.57,1.13-2.69,2.65-2.69s2.65,1.12,2.65,2.69-1.13,2.69-2.65,2.69-2.65-1.12-2.65-2.69ZM11.92,63.18c0-1.33-.91-2.23-2.13-2.23s-2.13.9-2.13,2.23.91,2.23,2.13,2.23,2.13-.9,2.13-2.23Z"/>
    <path d="M12.93,63.18c0-1.58,1.13-2.69,2.68-2.69.84,0,1.57.32,2.01.97l-.38.27c-.39-.54-.97-.79-1.63-.79-1.25,0-2.16.89-2.16,2.23s.91,2.23,2.16,2.23c.66,0,1.25-.25,1.63-.79l.38.27c-.44.64-1.17.97-2.01.97-1.55,0-2.68-1.12-2.68-2.69Z"/>
    <path d="M23.12,60.53v5.3h-.49v-1.14c-.35.74-1.07,1.18-2,1.18-1.35,0-2.21-.76-2.21-2.24v-3.1h.51v3.06c0,1.2.64,1.83,1.75,1.83,1.2,0,1.94-.8,1.94-2.06v-2.82h.51Z"/>
    <path d="M33.02,62.74v3.1h-.51v-3.06c0-1.2-.62-1.83-1.66-1.83-1.2,0-1.94.8-1.94,2.06v2.82h-.51v-3.06c0-1.2-.62-1.83-1.66-1.83-1.2,0-1.94.8-1.94,2.06v2.82h-.51v-5.3h.49v1.14c.35-.74,1.07-1.18,2.03-1.18s1.66.44,1.94,1.28c.35-.77,1.12-1.28,2.14-1.28,1.28,0,2.11.76,2.11,2.24Z"/>
    <path d="M38.84,63.3h-4.56c.05,1.26.97,2.11,2.24,2.11.67,0,1.29-.24,1.7-.74l.29.34c-.47.57-1.2.86-2,.86-1.6,0-2.73-1.12-2.73-2.69s1.09-2.69,2.54-2.69,2.53,1.1,2.53,2.67c0,.04-.01.09-.01.14ZM34.29,62.91h4.06c-.07-1.15-.9-1.97-2.03-1.97s-1.95.81-2.03,1.97Z"/>
    <path d="M44.4,62.74v3.1h-.51v-3.06c0-1.2-.64-1.83-1.72-1.83-1.25,0-2.01.8-2.01,2.06v2.82h-.51v-5.3h.49v1.15c.36-.74,1.1-1.19,2.1-1.19,1.29,0,2.15.76,2.15,2.24Z"/>
    <path d="M48.47,65.5c-.26.25-.69.38-1.09.38-.93,0-1.44-.55-1.44-1.44v-3.46h-.97v-.44h.97v-1.16h.51v1.16h1.69v.44h-1.69v3.41c0,.68.34,1.06.98,1.06.31,0,.61-.1.82-.29l.21.36Z"/>
    <path d="M56.42,65.83v-4.71s-2.35,3.9-2.35,3.9h-.59l-2.34-3.84v4.65h-1.26v-7.11h1.09l2.82,4.71,2.77-4.71h1.09v7.11s-1.24,0-1.24,0Z"/>
    <path d="M63.52,62.65v3.18h-1.2v-.66c-.3.47-.89.73-1.71.73-1.24,0-2.02-.68-2.02-1.62s.61-1.61,2.25-1.61h1.4v-.08c0-.74-.45-1.18-1.35-1.18-.61,0-1.24.2-1.64.54l-.5-.92c.58-.45,1.42-.67,2.29-.67,1.56,0,2.47.74,2.47,2.31ZM62.25,64.14v-.63h-1.31c-.86,0-1.1.32-1.1.72,0,.46.39.75,1.04.75s1.16-.28,1.37-.84Z"/>
    <path d="M69.88,62.73v3.11h-1.27v-2.94c0-.96-.48-1.43-1.29-1.43-.9,0-1.51.55-1.51,1.63v2.74h-1.27v-5.42h1.21v.7c.42-.5,1.08-.76,1.87-.76,1.3,0,2.26.74,2.26,2.38Z"/>
    <path d="M75.42,62.65v3.18h-1.2v-.66c-.3.47-.89.73-1.71.73-1.24,0-2.02-.68-2.02-1.62s.61-1.61,2.25-1.61h1.4v-.08c0-.74-.45-1.18-1.35-1.18-.61,0-1.24.2-1.65.54l-.5-.92c.58-.45,1.42-.67,2.3-.67,1.56,0,2.47.74,2.47,2.31ZM74.16,64.14v-.63h-1.31c-.86,0-1.1.32-1.1.72,0,.46.39.75,1.04.75s1.16-.28,1.37-.84Z"/>
    <path d="M81.87,60.41v4.6c0,1.97-1.03,2.86-2.92,2.86-1.02,0-2.02-.26-2.64-.77l.57-.95c.48.4,1.25.65,2,.65,1.2,0,1.73-.55,1.73-1.65v-.28c-.45.49-1.09.72-1.82.72-1.55,0-2.74-1.06-2.74-2.63s1.19-2.61,2.74-2.61c.76,0,1.43.24,1.88.78v-.72h1.21ZM80.62,62.96c0-.91-.69-1.53-1.65-1.53s-1.66.62-1.66,1.53.69,1.55,1.66,1.55,1.65-.63,1.65-1.55Z"/>
    <path d="M88.01,63.53h-4.25c.15.79.81,1.3,1.76,1.3.61,0,1.09-.19,1.47-.59l.68.78c-.49.58-1.25.88-2.18.88-1.82,0-3-1.17-3-2.78s1.19-2.77,2.8-2.77,2.74,1.11,2.74,2.8c0,.1-.01.25-.02.38ZM83.74,62.68h3.08c-.1-.78-.7-1.32-1.53-1.32s-1.42.53-1.54,1.32Z"/>
    <path d="M97.7,62.73v3.11h-1.27v-2.94c0-.96-.45-1.43-1.22-1.43-.83,0-1.41.55-1.41,1.62v2.75h-1.27v-2.94c0-.96-.45-1.43-1.22-1.43-.84,0-1.41.55-1.41,1.62v2.75h-1.27v-5.42h1.21v.69c.41-.49,1.04-.75,1.78-.75.79,0,1.45.29,1.83.9.44-.56,1.17-.9,2.03-.9,1.31,0,2.22.74,2.22,2.38Z"/>
    <path d="M103.85,63.53h-4.25c.15.79.81,1.3,1.76,1.3.61,0,1.09-.19,1.47-.59l.68.78c-.49.58-1.25.88-2.18.88-1.82,0-3-1.17-3-2.78s1.19-2.77,2.8-2.77,2.74,1.11,2.74,2.8c0,.1-.01.25-.02.38ZM99.58,62.68h3.08c-.1-.78-.7-1.32-1.53-1.32s-1.42.53-1.54,1.32Z"/>
    <path d="M109.82,62.73v3.11h-1.27v-2.94c0-.96-.48-1.43-1.29-1.43-.9,0-1.51.55-1.51,1.63v2.74h-1.27v-5.42h1.21v.7c.42-.5,1.08-.76,1.87-.76,1.3,0,2.26.74,2.26,2.38Z"/>
    <path d="M114.08,65.54c-.3.24-.76.37-1.22.37-1.19,0-1.87-.63-1.87-1.83v-2.61h-.89v-1.02h.89v-1.24h1.27v1.24h1.45v1.02h-1.45v2.58c0,.53.26.81.75.81.26,0,.52-.07.71-.22l.36.9Z"/>
  </g>
</svg>