<?xml version="1.0" encoding="UTF-8"?>
<svg id="Layer_1" data-name="Layer 1" xmlns="http://www.w3.org/2000/svg" viewBox="0 0 54.16 51.42">
  <path d="M48.82,5.33v-2.57h-1.01v-.48h2.58v.48h-1.01v2.57h-.57Z"/>
  <path d="M50.82,5.33v-3.04h.47l1.33,2.22h-.24l1.31-2.22h.47v3.04s-.53,0-.53,0v-2.2h.11l-1.1,1.86h-.26l-1.13-1.86h.13v2.2h-.54Z"/>
  <path d="M18.88,31.46h-1.7v-1h4.62v1h-1.7v4.3h-1.23v-4.3Z"/>
  <path d="M25.46,34.63h-2.46l-.47,1.14h-1.26l2.36-5.3h1.21l2.37,5.3h-1.29l-.47-1.14ZM25.07,33.7l-.84-2.03-.84,2.03h1.68Z"/>
  <path d="M28.3,35.68c-.39-.11-.71-.26-.94-.44l.42-.92c.23.17.5.3.81.4.31.1.63.15.94.15.35,0,.61-.05.77-.16.17-.1.25-.24.25-.41,0-.13-.05-.23-.15-.31-.1-.08-.22-.15-.38-.2-.15-.05-.36-.11-.62-.17-.4-.1-.73-.19-.99-.29-.26-.1-.48-.25-.66-.46-.18-.21-.28-.49-.28-.85,0-.31.08-.59.25-.84.17-.25.42-.45.75-.59.34-.15.75-.22,1.23-.22.34,0,.67.04.99.12.32.08.61.2.85.35l-.38.93c-.49-.28-.98-.42-1.47-.42-.34,0-.6.06-.76.17-.16.11-.25.26-.25.44s.09.32.28.41c.19.09.48.18.87.26.4.1.73.19.99.29.26.1.48.25.66.45.18.21.28.49.28.84,0,.3-.08.58-.25.83-.17.25-.42.45-.76.59-.34.15-.75.22-1.23.22-.42,0-.82-.06-1.22-.17Z"/>
  <g>
    <path d="M11.76,12.3h5.15c1.23,0,2.32.23,3.26.7.94.47,1.68,1.13,2.2,1.98.52.85.79,1.85.79,2.98s-.26,2.13-.79,2.98c-.52.85-1.26,1.51-2.2,1.98-.94.47-2.03.7-3.26.7h-5.15v-11.33ZM16.77,21.47c1.13,0,2.04-.32,2.71-.95.67-.63,1.01-1.49,1.01-2.57s-.34-1.93-1.01-2.57c-.67-.63-1.58-.95-2.71-.95h-2.4v7.03h2.4Z"/>
    <path d="M34.73,23.63l-.02-6.8-3.33,5.6h-1.18l-3.32-5.46v6.65h-2.46v-11.33h2.17l4.24,7.04,4.18-7.04h2.15l.03,11.33h-2.46Z"/>
  </g>
  <rect x="11.76" y="26.5" width="25.43" height="1"/>
  <path d="M44.32,2.28h0s0,0,0,0c0,0,0,0,0,0h0C37.95.77,31.3-.02,24.47,0c-6.83-.02-13.48.77-19.85,2.28h0s0,0,0,0c0,0,0,0,0,0h0C1.74,10.62.13,19.55,0,28.84c6.57,9.03,14.91,16.73,24.47,22.58,9.56-5.85,17.9-13.54,24.47-22.58-.13-9.29-1.74-18.22-4.62-26.56ZM24.47,45.9c-7.19-4.41-14.69-11.44-19.63-18.24.1-6.99,1.31-14.97,3.48-21.24h0s0,0,0,0c0,0,0,0,0,0h0c4.79-1.13,10.99-1.73,16.15-1.72,5.17-.01,11.37.59,16.15,1.72h0s0,0,0,0c0,0,0,0,0,0h0c2.17,6.28,3.38,14.25,3.48,21.24-4.94,6.8-12.44,13.84-19.63,18.24Z"/>
</svg>